<svg xmlns="http://www.w3.org/2000/svg" viewBox="0 0 179.32 179.17"><defs><style>.cls-1{fill:#fefefe;}.cls-2{fill:#eb961f;}.cls-3{fill:#eb971f;}.cls-4{fill:#fefdfd;}.cls-5{fill:#fefefd;}.cls-6{fill:#fdf9f3;}.cls-7{fill:#fdfaf5;}</style></defs><title>AvatarFundoBranco</title><g id="Camada_2" data-name="Camada 2"><g id="Camada_1-2" data-name="Camada 1"><path class="cls-1" d="M179.32,90.17c.15,48.39-39.9,88.22-88,89C39.76,180,1,138.42,0,91.87-1,41.7,38.1,1.25,87.12,0,139.25-1.26,179.49,40.11,179.32,90.17Z"/><path class="cls-2" d="M88.23,31.15c21.87-1.34,44.45,17.69,47.24,39.34a44.78,44.78,0,0,1-8.83,33.73c-5.87,7.9-11.64,15.87-17.54,23.74-10.26,13.7-28.14,13.72-38.38,0-5.67-7.58-11-15.4-16.91-22.81-16.92-21.34-12.42-52,14.36-68.34A38,38,0,0,1,88.23,31.15Z"/><path class="cls-3" d="M89.74,153H33c-4.19,0-4.48-.38-3.66-4.5a21,21,0,0,1,18.25-16.26c7.21-.66,14.44-.16,21.65-.36a5,5,0,0,1,3.57,1.67c10.31,9.13,24,9.17,34.18.08a5.34,5.34,0,0,1,3.92-1.75c7.09.21,14.19-.32,21.28.35a21,21,0,0,1,18.35,17c.56,3-.11,3.84-3.21,3.82C128.1,153,108.92,153,89.74,153Z"/><path class="cls-4" d="M107.15,103.31a26.32,26.32,0,0,1-6.38-.71c-7-2.12-9-9.28-3.69-14.26,6.63-6.21,14.62-8.41,23.48-5.8,7.2,2.12,8.81,8.82,3.46,14.19C119.29,101.48,113.29,103.27,107.15,103.31Z"/><path class="cls-5" d="M73,103.34c-6.68-.23-12.41-1.94-17-6.47-5.39-5.31-4.06-11.69,2.94-14.43,7.21-2.83,19.9.65,24.63,6.74C88,95,84.9,101.71,77.06,103.1A31.18,31.18,0,0,1,73,103.34Z"/><path class="cls-6" d="M89.77,127.77c-2,0-4-.08-5.93,0-1.76.1-2.41-.54-2.38-2.33s.87-2,2.32-2c4.08.05,8.17.06,12.25,0,1.54,0,2.23.52,2.22,2.14s-.58,2.24-2.17,2.19C94,127.72,91.87,127.77,89.77,127.77Z"/><path class="cls-7" d="M89.8,115.17c-.49,0-1,0-1.48,0-1.48.08-2.64,0-2.61-2.07,0-1.76.68-2.47,2.42-2.35a25.52,25.52,0,0,0,3.71,0c1.74-.13,2.36.55,2.39,2.33,0,2-1.07,2.18-2.58,2.09C91,115.14,90.42,115.17,89.8,115.17Z"/><path class="cls-3" d="M115.82,85.66c2,.23,5.69.11,6.78,3.65s-2.14,5.43-4.66,6.84c-4.64,2.59-9.67,3.95-15.08,2.57-2-.51-4-1.31-4.4-3.52-.38-2,.93-3.59,2.43-4.77C104.94,87.25,109.61,85.72,115.82,85.66Z"/><path class="cls-3" d="M64.46,85.63c5.76.26,10.66,1.4,14.64,5,1.38,1.25,2.77,2.72,2.2,4.8S79,98.25,77.1,98.69c-6,1.4-11.58,0-16.62-3.38-1.94-1.31-4.08-3-3.48-5.69.63-2.86,3.31-3.36,5.82-3.76Z"/></g></g></svg>