<svg width="200" height="200" xmlns="http://www.w3.org/2000/svg" xmlns:svg="http://www.w3.org/2000/svg">
 <g class="layer">
  <title>Layer 1</title>
  <path d="m178.00676,-52.10471c18.57149,7.6202 27.38826,32.55903 29.45175,55.07325c2.0635,22.34104 -2.62627,42.25746 -3.93941,64.07894c-1.12554,21.64829 1.31314,45.02845 -7.87881,64.94487c-9.19195,19.91643 -29.82694,36.36913 -52.15024,37.75462c-22.3233,1.55868 -45.95974,-11.77667 -71.09691,-19.39687c-25.32476,-7.6202 -51.77506,-9.17888 -74.09836,-20.95555c-22.5109,-11.77667 -40.7072,-33.59815 -40.89479,-55.766c0,-22.16785 18.19631,-44.85526 34.51671,-64.07894c16.3204,-19.39687 30.95248,-35.5032 49.14879,-43.1234c18.19631,-7.79338 39.95684,-7.27383 65.09401,-11.94986c25.13717,-4.50284 53.27579,-14.20128 71.84727,-6.58108z" fill="#1094AB" id="svg_1"/>
 </g>
</svg>